<?xml version="1.0" encoding="UTF-8" standalone="no"?>
<!-- Generator: Adobe Illustrator 16.0.0, SVG Export Plug-In . SVG Version: 6.00 Build 0)  -->

<svg
   xmlns:dc="http://purl.org/dc/elements/1.1/"
   xmlns:cc="http://creativecommons.org/ns#"
   xmlns:rdf="http://www.w3.org/1999/02/22-rdf-syntax-ns#"
   xmlns:svg="http://www.w3.org/2000/svg"
   xmlns="http://www.w3.org/2000/svg"
   xmlns:sodipodi="http://sodipodi.sourceforge.net/DTD/sodipodi-0.dtd"
   xmlns:inkscape="http://www.inkscape.org/namespaces/inkscape"
   version="1.1"
   id="Layer_1"
   x="0px"
   y="0px"
   width="266.893px"
   height="266.895px"
   viewBox="0 0 266.893 266.895"
   enable-background="new 0 0 266.893 266.895"
   xml:space="preserve"
   inkscape:version="0.91 r13725"
   sodipodi:docname="facebook.svg"><metadata
     id="metadata9"><rdf:RDF><cc:Work
         rdf:about=""><dc:format>image/svg+xml</dc:format><dc:type
           rdf:resource="http://purl.org/dc/dcmitype/StillImage" /></cc:Work></rdf:RDF></metadata><defs
     id="defs7" /><sodipodi:namedview
     pagecolor="#ffffff"
     bordercolor="#666666"
     borderopacity="1"
     objecttolerance="10"
     gridtolerance="10"
     guidetolerance="10"
     inkscape:pageopacity="0"
     inkscape:pageshadow="2"
     inkscape:window-width="1382"
     inkscape:window-height="843"
     id="namedview5"
     showgrid="false"
     inkscape:zoom="1.2505083"
     inkscape:cx="234.09413"
     inkscape:cy="46.867452"
     inkscape:window-x="225"
     inkscape:window-y="86"
     inkscape:window-maximized="0"
     inkscape:current-layer="Layer_1" /><path
     id="Blue_1_"
     d="m 252.20888,266.94594 c 8.13674,0 14.73503,-6.59828 14.73503,-14.7371 l 0,-237.523718 c 0,-8.139852 -6.59725,-14.736064 -14.73503,-14.736064 l -237.523722,0 c -8.139852,0 -14.736064,6.596212 -14.736064,14.736064 l 0,237.523718 c 0,8.13778 6.595176,14.7371 14.736064,14.7371 l 237.523722,0 z"
     inkscape:connector-curvature="0"
     style="fill:#3c5a99" /><path
     id="f"
     d="m 183.01884,266.24531 0,-103.39591 34.70496,0 5.19658,-40.29522 -39.90154,0 0,-25.72595 c 0,-11.666396 3.23957,-19.61666 19.9689,-19.61666 l 21.33746,-0.0093 0,-36.040368 c -3.69024,-0.491064 -16.35637,-1.588188 -31.09244,-1.588188 -30.76402,0 -51.8259,18.778536 -51.8259,53.263868 l 0,29.716622 -34.79406,0 0,40.29522 34.79406,0 0,103.39591 41.61198,0 z"
     inkscape:connector-curvature="0"
     style="fill:#ffffff" /></svg>