<?xml version="1.0" encoding="utf-8"?>

<!-- The icon can be used freely in both personal and commercial projects with no attribution required, but always appreciated. 
You may NOT sub-license, resell, rent, redistribute or otherwise transfer the icon without express written permission from iconmonstr.com -->

<!DOCTYPE svg PUBLIC "-//W3C//DTD SVG 1.1//EN" "http://www.w3.org/Graphics/SVG/1.1/DTD/svg11.dtd">
<svg version="1.1" xmlns="http://www.w3.org/2000/svg" xmlns:xlink="http://www.w3.org/1999/xlink" x="0px" y="0px"
	 width="512px" height="512px" viewBox="0 0 512 512" enable-background="new 0 0 512 512" xml:space="preserve">
<path id="shopping-bag-4-icon" d="M174,177.303V132c0-45.287,36.713-82,82-82s82,36.713,82,82v45.303c0,8.283-6.716,15-15,15
	s-15-6.717-15-15V132c0-28.673-23.326-52-52-52c-28.672,0-52,23.327-52,52v45.303c0,8.283-6.716,15-15,15S174,185.586,174,177.303z
	 M417.416,462H94.584l30.555-281.667h25.993c1.551,19.54,17.937,34.97,37.868,34.97s36.317-15.43,37.868-34.97h58.264
	c1.551,19.54,17.937,34.97,37.868,34.97s36.317-15.43,37.868-34.97h26.103L417.416,462z M383.999,432l-19.24-178H147.324l-19.31,178
	H383.999z"/>
</svg>
