<svg width="21" height="20" viewBox="0 0 21 20" fill="none" xmlns="http://www.w3.org/2000/svg">
<path d="M20.3052 10.2304C20.3052 9.55059 20.2501 8.86714 20.1325 8.19839H10.7002V12.0492H16.1016C15.8775 13.2912 15.1573 14.3898 14.1027 15.088V17.5866H17.3252C19.2176 15.8449 20.3052 13.2728 20.3052 10.2304Z" fill="#4285F4"/>
<path d="M10.7002 20.0007C13.3972 20.0007 15.6717 19.1151 17.3289 17.5866L14.1064 15.088C13.2098 15.6979 12.0524 16.0433 10.7039 16.0433C8.09501 16.0433 5.88299 14.2833 5.08931 11.9169H1.76394V14.4927C3.46153 17.8695 6.91919 20.0007 10.7002 20.0007Z" fill="#34A853"/>
<path d="M5.08565 11.9169C4.66676 10.6749 4.66676 9.33009 5.08565 8.08812V5.51234H1.76395C0.345617 8.33799 0.345606 11.667 1.76394 14.4927L5.08565 11.9169Z" fill="#FBBC04"/>
<path d="M10.7002 3.95805C12.1259 3.936 13.5038 4.47247 14.5363 5.45722L17.3914 2.60218C15.5835 0.904587 13.1841 -0.0287217 10.7002 0.000673888C6.91919 0.000673888 3.46154 2.13185 1.76395 5.51234L5.08565 8.08812C5.87565 5.71811 8.09133 3.95805 10.7002 3.95805Z" fill="#EA4335"/>
</svg>
